<?xml version="1.0" encoding="UTF-8" standalone="no"?>
<!DOCTYPE svg PUBLIC "-//W3C//DTD SVG 1.1//EN" "http://www.w3.org/Graphics/SVG/1.1/DTD/svg11.dtd">
<svg xmlns="http://www.w3.org/2000/svg" version="1.1" viewBox="0.00 0.00 500.00 500.00">
<g stroke-width="2.00" fill="none" stroke-linecap="butt">
<path stroke="#ae5751" vector-effect="non-scaling-stroke" d="
  M 386.77 307.27
  Q 386.41 307.87 386.75 307.66"
/>
<path stroke="#ae5751" vector-effect="non-scaling-stroke" d="
  M 387.79 311.89
  Q 388.04 312.43 388.00 312.22"
/>
<path stroke="#ae5751" vector-effect="non-scaling-stroke" d="
  M 390.20 314.59
  Q 390.30 315.04 391.06 315.20"
/>
<path stroke="#ae5751" vector-effect="non-scaling-stroke" d="
  M 394.29 316.24
  Q 394.85 316.44 395.07 316.17"
/>
<path stroke="#ae5751" vector-effect="non-scaling-stroke" d="
  M 403.89 307.79
  Q 404.11 307.18 403.82 307.03"
/>
<path stroke="#ae5751" vector-effect="non-scaling-stroke" d="
  M 403.44 304.12
  Q 403.31 303.68 403.20 303.55"
/>
<path stroke="#ae5751" vector-effect="non-scaling-stroke" d="
  M 401.73 301.56
  Q 401.50 301.54 400.87 301.06"
/>
<path stroke="#ae5751" vector-effect="non-scaling-stroke" d="
  M 397.21 299.38
  Q 396.76 298.90 396.51 299.30"
/>
<path stroke="#ae5751" vector-effect="non-scaling-stroke" d="
  M 391.23 299.90
  Q 390.97 300.15 390.61 300.27"
/>
</g>
<path fill="#6c6c6c" d="
  M 386.77 307.27
  Q 386.41 307.87 386.75 307.66
  Q 386.63 307.77 386.53 307.83
  Q 386.40 307.92 386.25 307.90
  L 318.80 298.97
  Q 318.11 298.88 317.83 299.52
  Q 317.36 300.62 316.36 301.38
  A 0.43 0.42 -36.5 0 0 316.27 301.96
  L 342.05 338.77
  A 0.75 0.75 0.0 0 0 342.94 339.03
  C 346.29 337.69 349.63 336.41 352.83 334.73
  Q 361.14 330.39 369.91 325.61
  Q 372.72 324.09 375.28 322.02
  Q 381.48 317.02 387.79 311.89
  Q 388.04 312.43 388.00 312.22
  L 377.89 320.87
  Q 376.74 321.86 378.10 321.19
  Q 384.22 318.15 390.20 314.59
  Q 390.30 315.04 391.06 315.20
  Q 389.93 315.82 389.78 316.61
  Q 389.64 317.33 389.62 317.38
  Q 385.92 327.29 382.06 337.12
  Q 382.05 337.16 382.08 337.17
  L 382.35 337.30
  Q 382.53 337.38 382.63 337.21
  L 394.29 316.24
  Q 394.85 316.44 395.07 316.17
  Q 388.90 327.42 382.76 338.27
  Q 382.54 338.66 382.09 339.09
  Q 381.57 339.59 381.48 339.97
  Q 381.16 341.34 382.12 340.30
  Q 400.93 319.82 420.74 298.45
  A 0.46 0.45 -60.8 0 0 420.53 297.70
  Q 419.68 297.46 419.31 298.19
  Q 419.09 298.62 418.68 298.86
  L 403.89 307.79
  Q 404.11 307.18 403.82 307.03
  L 417.53 298.78
  Q 417.77 298.64 417.64 298.38
  L 417.52 298.16
  Q 417.49 298.09 417.42 298.12
  L 403.44 304.12
  Q 403.31 303.68 403.20 303.55
  L 420.01 296.44
  A 0.72 0.72 0.0 0 0 420.43 295.60
  Q 419.55 292.10 422.71 290.55
  Q 423.33 290.25 423.20 289.57
  Q 420.49 275.94 418.07 262.25
  Q 418.00 261.82 418.16 261.45
  Q 418.40 260.88 417.78 260.95
  Q 417.24 261.01 417.05 261.53
  Q 409.38 281.53 401.73 301.56
  Q 401.50 301.54 400.87 301.06
  L 416.25 260.95
  A 0.59 0.58 27.1 0 0 416.02 260.25
  L 415.74 260.07
  Q 415.45 259.88 415.31 260.19
  L 397.21 299.38
  Q 396.76 298.90 396.51 299.30
  Q 405.37 280.12 414.11 261.15
  Q 414.45 260.40 414.58 260.27
  Q 415.64 259.10 414.08 259.36
  Q 402.38 261.30 390.11 263.31
  A 0.62 0.62 0.0 0 0 389.59 263.97
  Q 390.52 277.61 391.69 290.77
  Q 391.87 292.87 391.90 294.68
  Q 391.93 296.74 392.29 299.16
  Q 392.30 299.22 392.24 299.23
  L 391.94 299.28
  Q 391.60 299.33 391.57 298.99
  L 388.89 264.22
  A 0.59 0.59 0.0 0 0 388.21 263.68
  L 373.78 265.96
  Q 373.33 266.03 373.25 266.48
  L 372.97 268.17
  Q 372.89 268.65 373.14 269.07
  L 391.23 299.90
  Q 390.97 300.15 390.61 300.27
  L 372.59 269.53
  Q 372.34 269.10 371.84 269.09
  Q 371.60 269.08 371.37 269.18
  A 2.37 2.32 71.4 0 1 368.15 267.54
  C 367.53 264.90 370.34 263.24 372.40 264.87
  A 1.90 1.89 -30.2 0 0 373.90 265.26
  L 388.20 262.95
  Q 388.78 262.86 388.74 262.27
  L 386.17 229.72
  Q 386.11 229.03 385.42 228.95
  C 382.30 228.62 379.73 225.67 379.68 222.57
  Q 379.59 216.90 385.19 215.35
  Q 385.73 215.20 385.75 214.63
  L 386.29 197.86
  Q 386.32 197.11 385.68 196.71
  L 330.16 161.78
  Q 329.63 161.44 329.92 160.89
  L 337.13 147.46
  A 0.42 0.41 -77.1 0 0 336.75 146.85
  L 304.42 147.99
  Q 303.85 148.02 303.77 148.58
  C 302.89 154.76 295.55 157.32 291.44 152.30
  Q 288.72 148.97 290.59 144.88
  A 0.84 0.83 33.4 0 0 290.38 143.89
  L 252.04 110.00
  A 0.69 0.68 51.0 0 0 251.27 109.91
  L 227.26 122.75
  A 1.15 1.14 79.6 0 0 226.66 123.63
  C 226.15 128.17 219.80 128.70 219.00 124.32
  Q 218.45 121.29 221.20 119.93
  Q 221.71 119.68 221.64 119.11
  L 219.73 103.22
  A 0.40 0.39 -13.5 0 0 219.20 102.90
  L 184.31 116.05
  A 0.72 0.71 78.8 0 0 183.85 116.75
  C 184.17 122.83 175.93 124.08 174.21 118.44
  C 172.81 113.85 177.80 110.91 181.76 113.08
  Q 182.27 113.36 182.68 112.95
  L 221.81 73.82
  A 0.56 0.54 52.7 0 0 221.89 73.17
  Q 221.63 72.73 221.35 72.85
  Q 202.09 80.40 183.74 87.73
  A 0.63 0.63 0.0 0 0 183.35 88.44
  C 184.11 92.42 179.48 94.40 176.73 91.67
  C 173.42 88.39 178.34 83.05 182.21 86.25
  Q 182.64 86.61 183.12 86.33
  L 229.95 58.44
  A 0.67 0.67 0.0 0 0 230.18 57.53
  C 226.95 51.97 237.10 48.84 237.31 55.73
  A 0.55 0.55 0.0 0 0 237.91 56.27
  C 239.49 56.14 241.14 56.39 242.70 56.16
  Q 245.16 55.80 248.24 55.72
  C 256.45 55.50 264.63 55.17 272.95 55.10
  Q 275.33 55.08 277.97 54.84
  C 280.17 54.64 282.72 54.78 284.68 54.68
  Q 293.97 54.22 303.26 54.10
  C 309.79 54.02 317.24 53.49 324.20 53.51
  Q 324.76 53.51 324.95 52.98
  C 326.78 47.82 334.14 50.17 332.33 55.53
  Q 332.18 55.99 332.61 56.19
  Q 333.05 56.40 333.44 56.62
  Q 368.18 77.07 401.99 97.54
  Q 402.54 97.87 403.07 97.52
  C 406.82 95.06 411.21 99.84 408.36 103.01
  Q 407.87 103.55 408.25 104.17
  L 438.68 154.29
  Q 439.01 154.84 439.64 154.68
  Q 441.69 154.17 443.13 155.57
  Q 445.85 158.22 443.10 161.39
  A 1.17 1.17 0.0 0 1 442.45 161.77
  Q 441.89 161.88 441.62 162.37
  Q 441.47 162.67 441.49 163.00
  Q 443.59 194.74 445.73 225.98
  A 0.63 0.63 0.0 0 0 446.31 226.57
  C 451.73 226.96 450.72 235.19 445.20 234.19
  Q 444.52 234.07 444.31 234.72
  L 426.30 290.28
  Q 426.11 290.87 426.58 291.28
  Q 428.16 292.67 427.87 294.56
  Q 427.24 298.63 422.32 297.91
  Q 422.00 297.86 421.82 297.61
  Q 421.58 297.29 421.19 297.37
  Q 420.93 297.43 420.95 297.67
  Q 421.00 298.05 421.34 297.89
  Q 421.65 297.75 421.67 298.06
  Q 421.70 298.41 421.46 298.67
  L 382.50 340.89
  Q 382.13 341.28 382.52 341.65
  Q 382.74 341.86 383.04 341.95
  A 0.82 0.81 -11.5 0 1 383.48 342.24
  C 387.02 346.66 379.84 351.96 376.83 346.02
  Q 376.39 345.14 375.64 345.77
  Q 375.11 346.21 374.48 346.50
  Q 354.96 355.44 335.62 364.34
  A 0.64 0.63 -20.6 0 0 335.27 365.10
  C 336.77 370.08 329.33 372.23 327.89 367.18
  A 0.66 0.66 0.0 0 0 327.21 366.71
  L 277.73 370.86
  A 1.06 1.05 10.2 0 0 276.86 371.46
  C 275.04 375.27 270.14 374.65 269.37 370.43
  Q 269.27 369.88 268.74 369.70
  L 202.13 347.26
  Q 201.88 347.18 201.75 346.95
  Q 201.64 346.77 201.42 346.74
  Q 201.15 346.71 200.97 346.90
  C 200.23 347.67 199.64 348.53 198.60 348.91
  Q 196.00 349.86 194.24 347.78
  C 190.32 343.14 199.15 338.07 200.96 344.56
  Q 201.19 345.38 202.03 345.31
  L 238.93 342.21
  Q 239.62 342.15 239.60 341.45
  C 239.41 336.44 245.27 333.94 248.41 338.07
  Q 250.61 340.95 248.36 344.01
  Q 247.99 344.51 248.45 344.93
  C 250.11 346.46 250.56 347.61 253.24 347.79
  Q 273.71 349.21 294.18 350.61
  Q 295.60 350.71 296.79 350.38
  Q 297.77 350.12 298.69 350.32
  Q 299.40 350.48 299.58 349.77
  L 311.21 302.68
  A 0.67 0.66 -65.3 0 0 310.96 301.99
  C 309.40 300.80 308.26 299.12 308.48 297.06
  C 309.13 290.83 318.10 291.32 318.25 297.47
  Q 318.27 298.18 318.97 298.28
  L 386.77 307.27
  Z
  M 317.87 55.56
  C 319.13 54.63 321.19 55.46 322.78 55.00
  Q 323.49 54.80 322.79 54.57
  Q 321.20 54.06 319.46 54.17
  Q 311.27 54.69 303.48 54.80
  Q 295.63 54.91 287.35 55.28
  Q 279.05 55.66 270.75 55.79
  C 262.23 55.92 253.44 56.31 244.79 56.59
  Q 243.52 56.63 242.25 57.32
  Q 241.86 57.53 242.30 57.59
  L 280.28 62.74
  A 1.02 1.00 30.7 0 0 281.02 62.56
  Q 281.35 62.34 281.59 62.03
  C 283.15 59.99 286.31 61.82 286.55 63.65
  Q 286.61 64.11 287.06 64.20
  Q 289.00 64.59 290.69 65.83
  Q 291.16 66.17 291.71 65.98
  L 316.47 57.40
  Q 316.62 57.34 316.58 57.19
  L 316.51 56.94
  Q 316.45 56.72 316.22 56.77
  L 287.24 63.47
  A 0.09 0.09 0.0 0 1 287.13 63.40
  L 287.07 63.15
  Q 286.99 62.81 287.33 62.73
  Q 300.93 59.55 315.65 56.21
  Q 316.53 56.01 317.37 56.48
  Q 317.80 56.72 318.28 56.59
  Q 318.77 56.47 319.20 56.25
  Q 319.91 55.90 319.12 55.77
  Q 318.56 55.67 318.00 55.83
  Q 317.20 56.05 317.87 55.56
  Z
  M 324.51 55.32
  L 293.33 66.15
  Q 292.51 66.43 293.32 66.73
  C 303.01 70.31 312.77 74.36 322.90 76.77
  Q 331.15 78.74 339.88 81.01
  A 1.74 1.74 0.0 0 0 341.83 78.47
  L 330.33 58.21
  Q 330.02 57.66 329.40 57.74
  Q 326.64 58.10 325.29 55.62
  Q 325.02 55.14 324.51 55.32
  Z
  M 331.00 57.99
  C 334.84 64.93 338.78 71.61 342.75 78.73
  Q 343.04 79.25 343.63 79.23
  Q 347.26 79.11 347.98 82.57
  Q 348.10 83.16 348.68 83.33
  L 365.32 88.06
  Q 366.46 88.39 365.57 87.59
  L 331.59 57.21
  Q 331.33 56.98 331.05 57.18
  Q 330.91 57.28 330.89 57.46
  Q 330.86 57.75 331.00 57.99
  Z
  M 398.43 98.00
  Q 398.27 98.16 398.06 98.10
  L 370.70 90.32
  Q 369.34 89.94 370.39 90.89
  L 375.96 95.96
  A 1.37 1.35 59.4 0 0 377.18 96.28
  Q 379.49 95.75 380.42 97.76
  A 1.49 1.48 -11.2 0 0 381.70 98.61
  Q 389.09 98.88 396.01 99.19
  Q 397.79 99.26 399.51 98.40
  Q 399.98 98.16 400.50 98.25
  Q 400.71 98.29 400.89 98.40
  Q 401.70 98.89 401.24 98.05
  Q 401.06 97.73 400.87 97.61
  Q 367.03 77.40 333.24 57.10
  A 0.26 0.26 0.0 0 0 332.88 57.21
  Q 332.79 57.40 332.95 57.54
  Q 343.42 66.77 366.24 87.28
  Q 367.99 88.86 370.32 89.52
  Q 384.14 93.44 398.67 97.56
  Q 398.81 97.60 398.71 97.70
  L 398.43 98.00
  Z
  M 248.52 60.08
  Q 243.29 58.84 237.91 57.90
  Q 236.56 57.67 235.50 58.89
  Q 235.11 59.33 234.53 59.32
  Q 232.78 59.27 232.07 60.92
  Q 230.39 64.84 228.53 68.85
  A 1.08 1.08 0.0 0 0 229.63 70.38
  C 233.28 69.97 237.02 70.22 240.80 69.94
  Q 249.51 69.30 258.25 69.08
  Q 265.33 68.91 272.26 68.08
  Q 272.79 68.02 273.20 67.67
  Q 274.62 66.50 276.15 67.48
  Q 278.63 69.07 283.35 67.10
  Q 283.68 66.96 283.45 66.68
  L 283.26 66.44
  Q 283.10 66.25 282.85 66.28
  L 277.14 67.05
  Q 276.62 67.12 276.26 66.75
  Q 275.64 66.10 274.87 65.92
  C 266.41 63.93 257.23 62.16 248.52 60.08
  Z
  M 184.93 86.56
  Q 203.11 79.23 220.45 72.46
  Q 221.41 72.08 221.43 70.90
  A 2.21 2.16 -29.4 0 1 221.75 69.80
  Q 223.27 67.24 226.21 67.76
  Q 226.73 67.85 226.97 67.38
  Q 228.98 63.54 231.39 60.01
  Q 231.73 59.51 231.42 58.97
  A 0.51 0.50 59.1 0 0 230.73 58.79
  L 184.77 86.14
  Q 184.68 86.19 184.73 86.28
  L 184.85 86.53
  Q 184.88 86.59 184.93 86.56
  Z
  M 252.99 60.31
  C 254.22 61.08 255.77 60.98 257.18 61.29
  Q 266.57 63.35 277.06 65.64
  A 1.57 1.54 39.4 0 0 277.97 65.56
  Q 279.03 65.12 280.24 65.07
  Q 280.85 65.04 280.89 64.43
  Q 280.96 63.61 280.14 63.50
  Q 268.57 61.96 257.19 60.17
  C 255.60 59.92 254.21 60.19 252.68 59.67
  Q 251.07 59.13 249.41 59.22
  Q 248.39 59.27 249.35 59.64
  Q 250.64 60.13 252.13 60.07
  Q 252.60 60.06 252.99 60.31
  Z
  M 301.66 70.65
  Q 296.72 68.50 291.43 66.91
  A 0.54 0.54 0.0 0 0 290.74 67.47
  L 290.79 68.01
  Q 290.86 68.77 291.61 68.95
  Q 297.58 70.34 303.61 71.99
  Q 306.54 72.80 303.93 71.25
  Q 303.81 71.18 302.74 70.98
  Q 302.20 70.89 301.66 70.65
  Z
  M 247.04 89.81
  Q 265.09 79.77 281.98 70.33
  Q 284.70 68.81 281.58 68.79
  C 278.22 68.76 274.70 68.36 271.32 69.50
  Q 269.19 70.22 267.25 70.99
  Q 249.73 77.96 232.70 84.58
  A 0.60 0.60 0.0 0 0 232.37 85.39
  L 234.22 89.52
  Q 234.44 90.01 234.98 90.02
  Q 239.59 90.17 243.76 90.53
  Q 245.47 90.68 247.04 89.81
  Z
  M 268.07 69.07
  Q 265.15 69.61 261.50 69.70
  Q 250.93 69.94 240.59 70.65
  C 237.08 70.89 233.62 70.79 230.16 70.84
  A 1.17 1.17 0.0 0 0 229.01 71.98
  Q 228.98 73.37 227.91 74.32
  Q 227.45 74.74 227.70 75.30
  L 231.45 83.54
  A 0.49 0.48 -23.0 0 0 232.07 83.79
  Q 249.99 76.75 267.98 69.70
  Q 268.34 69.55 268.25 69.18
  A 0.16 0.15 75.9 0 0 268.07 69.07
  Z
  M 339.66 82.05
  Q 339.50 81.56 338.95 81.43
  Q 333.13 80.09 324.39 77.79
  Q 324.17 77.73 324.10 77.95
  L 324.02 78.19
  Q 324.01 78.23 324.05 78.24
  Q 328.76 79.85 333.50 81.66
  Q 333.73 81.75 333.64 81.99
  L 333.54 82.25
  Q 333.49 82.37 333.37 82.33
  Q 326.63 79.87 319.96 77.39
  C 311.58 74.26 301.62 72.15 292.11 69.76
  A 2.29 2.29 0.0 0 0 289.47 72.95
  L 293.55 81.67
  Q 293.83 82.27 294.48 82.14
  Q 298.45 81.38 300.27 85.02
  A 0.99 0.99 0.0 0 0 301.23 85.56
  L 333.22 83.00
  Q 333.68 82.97 333.76 82.51
  Q 333.83 82.07 334.25 82.12
  Q 336.86 82.43 339.00 83.62
  Q 339.46 83.87 339.95 83.69
  A 0.65 0.64 -27.7 0 0 340.26 82.71
  Q 340.15 82.56 340.00 82.47
  Q 339.75 82.33 339.66 82.05
  Z
  M 256.46 91.19
  Q 261.79 91.50 263.76 91.18
  Q 272.84 89.67 281.50 88.27
  Q 281.98 88.19 282.02 87.71
  L 283.39 71.07
  Q 283.45 70.33 282.80 70.69
  L 247.68 90.23
  Q 246.21 91.05 247.89 91.01
  Q 251.96 90.92 256.46 91.19
  Z
  M 283.69 76.88
  Q 283.12 82.02 282.73 86.82
  Q 282.62 88.07 283.86 87.88
  L 289.56 87.01
  Q 290.75 86.82 291.00 85.64
  Q 291.38 83.88 292.96 82.86
  A 0.46 0.45 -29.2 0 0 293.13 82.28
  L 288.45 72.53
  Q 288.09 71.80 287.30 71.98
  Q 285.66 72.35 284.48 71.17
  Q 283.85 70.55 283.83 71.44
  C 283.80 73.28 283.90 75.04 283.69 76.88
  Z
  M 219.29 86.97
  L 224.40 75.91
  Q 224.75 75.16 223.92 75.12
  Q 223.41 75.09 223.05 74.68
  Q 222.53 74.09 221.98 74.64
  Q 202.57 94.04 183.36 113.26
  Q 183.05 113.57 182.96 114.02
  Q 182.84 114.65 183.35 115.13
  A 0.93 0.91 55.9 0 0 184.30 115.32
  L 219.00 102.25
  A 0.69 0.69 0.0 0 0 219.44 101.53
  L 218.53 93.51
  Q 218.46 92.86 217.84 92.63
  C 214.66 91.45 215.30 87.68 218.51 87.50
  Q 219.06 87.47 219.29 86.97
  Z
  M 226.73 75.65
  A 0.76 0.76 0.0 0 0 225.35 75.65
  L 219.92 87.18
  A 0.76 0.76 0.0 0 0 220.89 88.21
  L 230.03 84.63
  A 0.76 0.76 0.0 0 0 230.44 83.60
  L 226.73 75.65
  Z
  M 340.14 84.71
  C 338.12 84.30 336.44 83.41 334.56 83.57
  Q 318.10 84.97 301.25 86.22
  Q 300.54 86.28 300.62 86.99
  Q 300.70 87.76 300.34 88.45
  Q 300.02 89.07 300.59 89.46
  Q 303.07 91.14 305.71 93.05
  Q 307.37 94.24 309.65 94.39
  Q 316.75 94.86 323.99 95.24
  Q 333.45 95.73 343.21 96.42
  Q 344.16 96.49 344.16 95.54
  L 344.14 87.96
  Q 344.13 86.96 343.15 86.75
  Q 341.68 86.43 340.72 85.09
  Q 340.51 84.78 340.14 84.71
  Z
  M 348.02 84.99
  Q 347.04 85.29 346.80 86.10
  Q 346.66 86.60 347.14 86.77
  L 351.51 88.37
  Q 352.49 88.73 351.67 88.08
  Q 350.04 86.76 348.06 85.45
  Q 347.78 85.26 348.02 84.99
  Q 348.59 84.94 349.27 85.46
  C 352.17 87.66 354.75 89.56 358.25 90.87
  Q 365.45 93.57 372.88 96.28
  Q 373.59 96.54 374.18 97.01
  Q 374.77 97.48 375.43 97.26
  Q 376.20 97.01 375.58 96.49
  Q 372.44 93.83 369.44 90.97
  Q 367.85 89.45 365.86 88.90
  Q 357.32 86.51 348.45 84.08
  Q 347.84 83.91 348.02 84.99
  Z
  M 222.69 89.28
  C 224.77 89.68 226.80 89.43 228.93 89.88
  Q 230.98 90.32 233.16 89.83
  A 0.12 0.12 0.0 0 0 233.24 89.66
  L 231.29 85.55
  Q 231.19 85.35 230.98 85.42
  Q 226.16 87.02 221.95 88.99
  Q 221.72 89.09 221.66 89.39
  Q 221.56 89.84 221.93 89.58
  L 222.23 89.37
  Q 222.44 89.23 222.69 89.28
  Z
  M 344.84 86.89
  Q 344.94 91.49 344.78 96.04
  Q 344.76 96.48 345.20 96.51
  L 364.27 97.63
  Q 365.28 97.69 364.46 97.12
  C 360.34 94.22 356.24 90.62 351.45 89.05
  Q 348.28 88.02 345.10 86.71
  A 0.19 0.19 0.0 0 0 344.84 86.89
  Z
  M 282.27 89.65
  Q 285.76 90.09 286.68 92.55
  A 0.99 0.97 77.5 0 0 287.66 93.19
  Q 291.05 92.97 294.31 93.55
  Q 294.85 93.65 295.01 93.12
  Q 295.14 92.68 295.02 92.22
  Q 294.88 91.73 294.39 91.59
  Q 291.60 90.84 290.98 88.04
  Q 290.86 87.52 290.33 87.60
  L 266.29 91.41
  A 0.23 0.23 0.0 0 0 266.09 91.65
  L 266.11 91.91
  Q 266.11 91.93 266.13 91.93
  Q 272.52 92.04 278.73 92.23
  A 1.01 0.97 24.0 0 0 279.42 91.98
  L 281.89 89.77
  Q 282.05 89.62 282.27 89.65
  Z
  M 304.37 94.21
  Q 304.70 94.24 305.02 94.21
  Q 306.13 94.09 305.21 93.46
  L 300.32 90.11
  Q 299.84 89.78 299.44 90.20
  Q 298.28 91.41 296.56 91.74
  Q 296.01 91.84 295.88 92.39
  Q 295.76 92.87 296.04 93.23
  Q 296.29 93.54 297.04 93.60
  Q 300.78 93.89 304.37 94.21
  Z
  M 220.84 101.52
  L 231.28 97.64
  Q 231.83 97.43 231.85 96.85
  Q 231.96 94.28 233.90 92.82
  Q 234.29 92.53 234.24 92.04
  Q 234.20 91.69 234.04 91.38
  Q 233.82 90.96 233.34 90.96
  Q 227.40 90.99 221.94 90.37
  A 0.85 0.83 17.8 0 0 221.12 90.78
  Q 220.64 91.63 219.81 92.07
  Q 219.11 92.45 219.20 93.23
  L 220.10 101.07
  Q 220.18 101.77 220.84 101.52
  Z
  M 239.36 92.72
  Q 241.20 93.93 242.88 91.89
  Q 243.39 91.28 242.60 91.37
  Q 241.49 91.49 240.27 91.45
  C 238.53 91.38 237.02 90.66 235.27 91.10
  Q 235.00 91.17 235.06 91.44
  L 235.12 91.75
  Q 235.19 92.12 235.56 92.04
  Q 237.70 91.62 239.36 92.72
  Z
  M 256.06 92.35
  Q 256.06 92.29 256.00 92.28
  Q 251.53 92.03 246.81 91.79
  C 244.96 91.69 243.21 92.37 241.88 93.62
  Q 240.20 95.19 242.45 94.73
  Q 248.87 93.42 255.91 92.78
  Q 256.07 92.77 256.07 92.61
  L 256.06 92.35
  Z
  M 359.98 92.26
  Q 357.68 91.40 359.66 92.86
  Q 361.77 94.39 364.31 96.25
  C 366.98 98.21 370.27 98.37 373.23 98.00
  Q 374.91 97.78 373.32 97.20
  L 359.98 92.26
  Z
  M 256.12 93.08
  Q 249.27 94.32 242.28 95.37
  Q 241.66 95.47 241.74 96.09
  Q 241.93 97.52 241.29 98.86
  Q 241.04 99.39 241.47 99.77
  L 251.53 108.60
  A 0.50 0.49 -38.4 0 0 252.10 108.66
  L 278.84 94.35
  Q 279.25 94.12 279.08 93.69
  L 278.96 93.38
  Q 278.93 93.30 278.84 93.32
  Q 277.21 93.75 276.09 93.18
  Q 275.71 92.98 275.27 92.98
  Q 268.76 93.02 262.26 92.69
  Q 259.15 92.53 256.12 93.08
  Z
  M 288.17 96.13
  L 294.72 99.72
  Q 295.03 99.89 295.03 99.54
  L 295.01 94.70
  Q 295.01 94.38 294.70 94.32
  Q 291.00 93.54 288.66 93.77
  Q 284.59 94.16 288.17 96.13
  Z
  M 296.53 100.72
  L 336.44 122.70
  A 0.89 0.88 45.3 0 0 337.28 122.71
  L 338.77 121.95
  Q 339.46 121.60 339.16 120.88
  Q 338.42 119.11 338.91 117.44
  Q 339.12 116.72 338.51 116.30
  L 307.74 95.22
  A 1.78 1.76 63.6 0 0 306.86 94.92
  L 296.47 94.32
  Q 295.99 94.29 295.98 94.78
  L 295.97 99.78
  Q 295.97 100.42 296.53 100.72
  Z
  M 290.76 143.29
  Q 291.26 143.73 291.71 143.24
  Q 292.86 141.95 294.51 141.42
  A 0.73 0.72 81.2 0 0 295.01 140.73
  L 295.02 101.28
  A 1.06 1.04 14.5 0 0 294.47 100.36
  L 286.92 96.24
  Q 286.48 96.00 286.10 96.31
  Q 282.24 99.51 279.53 95.40
  Q 279.22 94.93 278.73 95.20
  L 252.81 109.07
  Q 252.32 109.33 252.74 109.70
  L 290.76 143.29
  Z
  M 343.09 97.05
  L 309.75 95.12
  Q 308.72 95.06 309.57 95.64
  L 338.99 115.79
  Q 339.51 116.15 339.90 115.66
  Q 341.08 114.21 342.85 113.99
  A 0.81 0.80 87.2 0 0 343.56 113.20
  L 343.82 97.84
  A 0.78 0.77 -88.1 0 0 343.09 97.05
  Z
  M 354.40 120.20
  C 355.27 120.24 355.95 120.40 356.64 119.73
  Q 365.01 111.54 372.92 103.98
  A 0.54 0.54 0.0 0 0 372.86 103.15
  L 367.78 99.53
  A 6.56 6.55 -25.5 0 0 364.35 98.32
  L 345.08 97.22
  Q 344.60 97.19 344.59 97.67
  L 344.25 113.29
  A 0.74 0.73 9.7 0 0 344.76 114.00
  Q 348.59 115.25 348.49 118.98
  Q 348.48 119.59 349.08 119.68
  Q 351.76 120.09 354.40 120.20
  Z
  M 250.47 108.63
  Q 245.80 104.40 241.14 100.43
  Q 240.71 100.06 240.26 100.39
  Q 235.42 103.90 232.12 98.61
  Q 231.85 98.18 231.37 98.35
  L 221.10 102.18
  Q 220.32 102.47 220.42 103.30
  L 222.33 118.87
  Q 222.41 119.51 223.04 119.65
  L 224.54 119.99
  Q 225.03 120.10 225.32 120.51
  L 226.31 121.91
  Q 226.60 122.33 227.06 122.09
  L 250.60 109.48
  A 0.48 0.44 87.4 0 0 250.80 109.24
  Q 250.93 108.82 250.71 108.76
  Q 250.57 108.72 250.47 108.63
  Z
  M 368.30 98.68
  Q 367.80 98.67 368.20 98.96
  L 373.41 102.71
  Q 373.87 103.04 374.26 102.63
  L 375.82 101.00
  Q 376.28 100.52 375.91 99.97
  L 375.46 99.27
  Q 375.17 98.84 374.66 98.83
  L 368.30 98.68
  Z
  M 407.96 105.51
  Q 408.05 105.75 407.95 105.91
  Q 407.84 106.09 407.91 106.29
  L 415.37 127.12
  A 1.09 1.08 85.2 0 0 416.20 127.83
  C 418.19 128.19 419.23 129.99 418.32 131.68
  Q 418.08 132.13 418.42 132.51
  Q 427.86 143.14 437.16 153.92
  Q 437.29 154.07 437.46 153.95
  L 437.47 153.94
  Q 437.64 153.82 437.53 153.64
  Q 422.94 129.76 408.39 105.85
  Q 408.24 105.60 407.96 105.51
  L 407.85 105.07
  Q 407.73 104.56 407.22 104.64
  Q 402.04 105.48 401.42 100.41
  Q 401.36 99.91 400.86 99.89
  L 381.70 99.37
  Q 379.78 99.32 381.25 100.56
  L 404.11 119.84
  Q 404.75 120.38 404.75 119.55
  L 404.76 105.11
  Q 404.76 105.05 404.82 105.04
  L 405.08 105.00
  Q 405.50 104.93 405.50 105.35
  L 405.50 120.21
  A 1.76 1.73 -70.3 0 0 406.12 121.55
  L 413.38 127.68
  Q 415.43 129.41 414.53 126.88
  Q 411.14 117.31 407.09 106.17
  A 0.58 0.56 -17.2 0 1 407.49 105.43
  Q 407.54 105.42 407.96 105.51
  Z
  M 405.99 122.68
  Q 408.21 124.82 408.11 127.45
  Q 408.09 127.94 408.40 128.33
  Q 410.37 130.76 413.18 130.28
  A 0.77 0.77 0.0 0 0 413.54 128.92
  L 405.99 122.68
  L 382.34 102.32
  Q 380.17 100.45 377.41 101.19
  Q 376.62 101.41 375.92 101.84
  Q 373.95 103.07 375.84 104.42
  L 401.29 122.56
  A 2.12 2.12 0.0 0 0 403.41 122.77
  Q 404.60 122.23 405.99 122.68
  Z
  M 335.69 123.07
  L 296.26 101.36
  A 0.19 0.19 0.0 0 0 295.98 101.52
  L 295.98 140.48
  Q 295.98 141.05 296.54 141.02
  Q 299.40 140.87 301.55 142.86
  A 1.03 1.02 -38.8 0 0 302.77 142.99
  L 335.70 123.69
  Q 336.24 123.37 335.69 123.07
  Z
  M 357.31 120.03
  A 0.31 0.31 0.0 0 0 357.49 120.56
  L 400.28 124.91
  Q 400.78 124.96 401.05 124.54
  Q 401.25 124.23 401.30 123.87
  Q 401.36 123.47 401.03 123.23
  L 374.38 104.22
  Q 373.97 103.92 373.61 104.27
  L 357.31 120.03
  Z
  M 355.21 121.17
  A 0.11 0.11 0.0 0 0 355.15 120.98
  Q 351.88 120.71 350.07 120.54
  Q 346.28 120.19 349.30 122.35
  Q 350.17 122.98 351.96 123.73
  Q 352.26 123.86 352.50 123.63
  Q 353.85 122.36 355.21 121.17
  Z
  M 368.18 129.14
  Q 384.45 129.50 401.16 129.90
  Q 401.38 129.91 401.31 129.70
  L 400.05 125.82
  Q 399.97 125.59 399.73 125.56
  L 357.02 121.20
  Q 356.40 121.14 355.93 121.55
  L 353.24 123.92
  A 0.47 0.47 0.0 0 0 353.33 124.68
  Q 356.29 126.27 359.28 128.13
  C 362.09 129.87 365.08 129.08 368.18 129.14
  Z
  M 347.54 122.10
  Q 347.45 122.04 347.37 122.12
  Q 344.02 125.11 340.64 122.69
  A 0.88 0.86 51.3 0 0 339.84 122.59
  L 338.58 123.09
  A 0.45 0.45 0.0 0 0 338.53 123.91
  L 343.68 126.64
  Q 344.31 126.97 344.83 126.49
  Q 346.93 124.57 349.34 125.94
  Q 349.89 126.25 350.34 125.81
  L 351.32 124.83
  Q 351.68 124.48 351.25 124.23
  L 347.54 122.10
  Z
  M 344.80 132.07
  C 343.58 130.85 343.58 129.80 343.78 128.20
  Q 343.87 127.53 343.27 127.21
  L 337.85 124.31
  A 1.37 1.36 43.6 0 0 336.53 124.34
  L 303.18 143.89
  Q 302.55 144.26 302.99 144.85
  Q 303.53 145.56 303.61 146.45
  Q 303.66 147.12 304.34 147.14
  Q 309.54 147.26 314.50 146.98
  Q 320.84 146.62 327.99 146.54
  C 331.10 146.50 334.08 145.87 337.22 146.22
  A 0.82 0.82 0.0 0 0 338.03 145.79
  L 344.94 132.98
  A 0.78 0.76 36.9 0 0 344.80 132.07
  Z
  M 351.37 128.58
  A 0.45 0.45 0.0 0 0 351.75 128.85
  L 358.29 129.24
  A 0.45 0.45 0.0 0 0 358.54 128.40
  L 352.63 125.03
  A 0.45 0.45 0.0 0 0 352.10 125.09
  L 350.72 126.41
  A 0.45 0.45 0.0 0 0 350.62 126.92
  L 351.37 128.58
  Z
  M 407.95 129.62
  L 408.33 129.98
  Q 408.77 130.40 408.75 129.79
  Q 408.73 129.19 408.07 128.92
  Q 407.17 128.55 406.63 129.26
  Q 406.34 129.64 406.81 129.53
  Q 407.00 129.48 407.19 129.43
  A 0.77 0.76 -30.5 0 1 407.95 129.62
  Z
  M 367.60 144.99
  A 1.28 1.28 0.0 0 0 368.44 145.28
  L 382.32 144.89
  A 1.28 1.28 0.0 0 0 382.92 142.50
  L 361.30 130.05
  A 1.28 1.28 0.0 0 0 360.70 129.88
  L 352.22 129.62
  A 1.28 1.28 0.0 0 0 351.37 131.90
  L 367.60 144.99
  Z
  M 363.64 130.60
  L 383.62 142.13
  Q 384.07 142.40 384.45 142.03
  Q 387.27 139.30 390.29 140.79
  A 0.85 0.84 34.2 0 0 391.30 140.60
  L 399.91 131.12
  Q 400.43 130.54 399.65 130.53
  Q 392.08 130.45 385.38 130.30
  Q 380.00 130.18 374.63 129.91
  Q 369.56 129.66 363.81 129.91
  Q 362.53 129.97 363.64 130.60
  Z
  M 420.51 161.34
  Q 420.04 158.23 419.54 155.03
  Q 419.11 152.20 417.58 149.41
  Q 412.64 140.40 407.87 131.41
  A 1.20 1.19 75.7 0 0 406.82 130.78
  L 401.88 130.77
  Q 401.14 130.77 400.64 131.32
  L 391.86 141.06
  Q 391.45 141.51 391.86 141.96
  Q 392.95 143.13 393.20 144.81
  C 393.34 145.73 392.88 146.43 392.81 147.31
  Q 392.77 147.82 393.20 148.12
  L 420.73 167.22
  Q 421.98 168.08 421.37 166.69
  C 420.83 165.44 421.22 164.49 420.90 163.28
  Q 420.66 162.35 420.51 161.34
  Z
  M 409.81 133.67
  C 412.40 138.74 415.45 143.81 418.17 148.98
  Q 418.71 150.00 418.54 148.86
  L 416.82 137.45
  Q 416.76 137.03 416.46 136.72
  Q 414.23 134.43 411.66 132.21
  Q 406.99 128.17 409.81 133.67
  Z
  M 416.37 134.33
  Q 415.95 133.02 414.89 132.73
  Q 414.36 132.59 414.11 132.12
  Q 413.58 131.14 412.59 130.84
  A 0.49 0.49 0.0 0 0 412.11 131.66
  L 415.56 134.85
  Q 416.94 136.13 416.37 134.33
  Z
  M 357.92 145.42
  A 0.35 0.35 0.0 0 0 358.24 145.59
  L 365.82 145.19
  A 0.35 0.35 0.0 0 0 366.02 144.57
  L 350.49 132.13
  A 0.35 0.35 0.0 0 0 349.98 132.59
  L 357.92 145.42
  Z
  M 432.70 150.52
  A 0.16 0.16 0.0 0 0 432.93 150.52
  L 433.07 150.37
  A 0.16 0.16 0.0 0 0 433.07 150.15
  L 417.13 132.13
  A 0.16 0.16 0.0 0 0 416.85 132.27
  L 417.99 137.00
  A 0.16 0.16 0.0 0 0 418.04 137.08
  L 432.70 150.52
  Z
  M 345.85 133.06
  A 0.33 0.33 0.0 0 0 345.57 133.23
  L 338.83 145.79
  A 0.33 0.33 0.0 0 0 339.14 146.28
  L 356.61 145.59
  A 0.33 0.33 0.0 0 0 356.88 145.09
  L 349.50 133.17
  A 0.33 0.33 0.0 0 0 349.21 133.01
  L 345.85 133.06
  Z
  M 421.01 154.47
  C 424.05 160.28 427.30 165.95 430.21 171.46
  Q 430.48 171.98 431.05 172.08
  L 432.96 172.41
  Q 433.49 172.50 433.73 172.01
  L 438.24 162.69
  Q 438.63 161.89 438.00 161.27
  Q 435.95 159.24 437.17 156.44
  Q 437.44 155.82 436.94 155.36
  L 418.53 138.49
  Q 417.81 137.82 417.98 138.79
  Q 419.09 145.06 419.90 150.91
  Q 420.16 152.84 421.01 154.47
  Z
  M 387.12 150.19
  A 0.19 0.18 -81.7 0 0 386.99 150.01
  Q 384.08 149.05 383.40 146.05
  A 0.66 0.66 0.0 0 0 382.73 145.54
  L 369.71 145.96
  Q 368.77 145.99 369.50 146.57
  L 386.51 160.28
  A 0.44 0.43 19.2 0 0 387.22 159.94
  L 387.12 150.19
  Z
  M 385.64 190.10
  A 0.36 0.36 0.0 0 0 386.31 189.92
  L 387.18 161.88
  A 0.36 0.36 0.0 0 0 387.05 161.59
  L 367.45 145.82
  A 0.36 0.36 0.0 0 0 367.20 145.74
  L 359.07 146.31
  A 0.36 0.36 0.0 0 0 358.79 146.86
  L 385.64 190.10
  Z
  M 330.85 160.64
  A 0.71 0.70 30.1 0 0 331.10 161.56
  L 385.33 195.68
  Q 385.78 195.96 385.98 195.47
  Q 386.82 193.37 385.61 191.41
  Q 371.78 169.08 357.96 146.78
  A 1.02 1.02 0.0 0 0 357.06 146.30
  L 338.89 146.92
  A 1.23 1.22 13.0 0 0 337.87 147.55
  L 330.85 160.64
  Z
  M 389.83 149.90
  L 388.51 150.05
  A 0.71 0.70 87.2 0 0 387.89 150.74
  L 387.80 160.74
  A 1.26 1.23 -71.0 0 0 388.26 161.71
  L 419.52 186.97
  Q 419.88 187.26 420.21 186.93
  L 423.64 183.56
  Q 423.93 183.27 423.87 182.88
  L 421.80 169.56
  Q 421.73 169.12 421.36 168.86
  L 392.80 149.03
  Q 392.39 148.75 391.88 148.79
  Q 391.28 148.85 390.87 149.34
  Q 390.46 149.83 389.83 149.90
  Z
  M 422.54 167.27
  Q 422.53 168.41 423.41 169.06
  Q 426.00 170.95 428.89 172.80
  A 0.41 0.41 0.0 0 0 429.50 172.58
  Q 429.71 171.96 429.39 171.36
  Q 425.72 164.58 421.34 156.47
  Q 420.58 155.07 420.79 156.64
  Q 421.14 159.27 421.77 162.24
  C 422.05 163.63 421.69 165.05 422.31 166.28
  Q 422.54 166.75 422.54 167.27
  Z
  M 443.53 222.50
  L 432.81 179.98
  Q 432.77 179.83 432.63 179.76
  Q 432.32 179.61 432.05 180.14
  Q 431.88 180.48 431.82 180.85
  L 430.12 192.39
  Q 430.10 192.48 430.01 192.47
  L 429.70 192.43
  Q 429.47 192.40 429.50 192.17
  L 430.70 183.45
  Q 430.86 182.29 430.35 183.34
  Q 428.87 186.32 427.60 189.72
  Q 427.41 190.21 427.76 190.60
  L 429.59 192.67
  Q 429.89 193.01 429.86 193.47
  Q 429.69 195.50 429.56 197.37
  Q 429.47 198.61 430.29 200.14
  Q 437.33 213.29 443.48 224.80
  Q 444.42 226.55 444.13 224.58
  Q 444.04 223.94 444.44 222.83
  Q 444.76 221.94 444.69 221.02
  Q 442.72 191.94 440.85 164.05
  Q 440.57 159.98 438.91 163.71
  L 434.78 172.97
  Q 434.53 173.53 434.72 174.12
  Q 435.63 176.93 433.83 178.90
  Q 433.40 179.36 433.56 179.97
  Q 438.84 201.30 444.24 222.59
  Q 444.26 222.65 444.20 222.66
  L 443.92 222.73
  Q 443.61 222.81 443.53 222.50
  Z
  M 387.89 163.52
  Q 387.38 173.62 387.34 180.94
  Q 387.31 185.81 386.80 190.81
  C 386.63 192.54 388.93 195.45 389.90 197.01
  Q 390.23 197.55 390.83 197.36
  Q 392.66 196.81 393.81 198.21
  Q 394.26 198.76 394.95 198.61
  L 411.17 195.27
  Q 412.11 195.08 412.79 194.40
  L 418.95 188.20
  A 0.57 0.57 0.0 0 0 418.90 187.35
  L 388.85 163.09
  Q 387.95 162.36 387.89 163.52
  Z
  M 428.03 178.16
  C 427.16 177.09 427.17 175.36 427.79 174.20
  Q 428.14 173.53 427.52 173.11
  L 424.16 170.84
  Q 422.53 169.75 423.06 171.63
  Q 423.77 174.17 423.89 176.72
  C 423.97 178.49 424.49 179.95 424.78 181.64
  Q 424.89 182.27 425.34 181.82
  L 427.98 179.19
  Q 428.47 178.70 428.03 178.16
  Z
  M 429.14 184.09
  C 429.59 182.88 430.52 181.73 430.73 180.48
  A 1.01 1.01 0.0 0 0 429.02 179.59
  L 425.21 183.31
  Q 424.74 183.77 424.93 184.39
  Q 425.68 186.90 426.05 189.48
  Q 426.09 189.76 426.31 189.94
  Q 426.42 190.03 426.54 190.10
  Q 427.24 190.50 427.06 189.71
  C 426.99 189.43 427.04 189.01 427.16 188.75
  Q 428.24 186.51 429.14 184.09
  Z
  M 424.18 185.27
  A 0.42 0.42 0.0 0 0 423.47 185.05
  L 420.97 187.60
  A 0.42 0.42 0.0 0 0 421.01 188.23
  L 424.45 190.88
  A 0.42 0.42 0.0 0 0 425.12 190.48
  L 424.18 185.27
  Z
  M 423.46 192.65
  A 0.76 0.76 0.0 0 0 423.77 191.31
  L 420.69 188.83
  Q 420.15 188.40 419.66 188.89
  L 414.49 194.06
  Q 413.77 194.79 414.77 194.56
  L 423.46 192.65
  Z
  M 397.15 212.06
  L 406.57 232.94
  A 4.25 4.18 -87.1 0 0 408.27 234.85
  L 418.50 240.96
  Q 418.91 241.20 419.04 240.74
  Q 419.35 239.67 419.69 238.56
  Q 420.01 237.49 420.03 236.39
  C 420.07 233.05 420.96 230.05 421.09 226.78
  Q 421.17 224.52 421.67 222.37
  C 422.19 220.12 422.03 217.79 422.48 215.50
  Q 422.98 213.00 423.12 210.44
  C 423.26 207.84 424.01 205.43 424.10 202.82
  Q 424.19 199.90 424.94 197.26
  Q 425.50 195.32 423.98 193.82
  Q 423.55 193.41 422.98 193.53
  L 413.77 195.46
  A 2.98 2.91 16.1 0 0 412.28 196.26
  L 397.30 211.24
  A 0.73 0.73 0.0 0 0 397.15 212.06
  Z
  M 428.43 194.11
  Q 427.39 195.45 428.40 196.53
  A 0.41 0.41 0.0 0 0 429.10 196.23
  L 429.00 194.29
  Q 428.96 193.44 428.43 194.11
  Z
  M 387.67 194.62
  Q 387.24 193.86 386.94 194.69
  Q 386.17 196.89 388.76 197.77
  Q 389.65 198.07 389.18 197.26
  L 387.67 194.62
  Z
  M 420.68 238.47
  A 0.31 0.31 0.0 0 0 421.10 238.80
  L 422.81 238.16
  A 0.31 0.31 0.0 0 0 423.01 237.92
  L 428.58 198.28
  A 0.31 0.31 0.0 0 0 428.53 198.06
  L 426.62 195.21
  A 0.31 0.31 0.0 0 0 426.06 195.34
  L 420.68 238.47
  Z
  M 393.10 203.12
  L 396.19 209.94
  Q 396.51 210.65 397.06 210.10
  L 410.45 196.72
  Q 411.16 196.01 410.17 196.21
  L 395.65 199.15
  A 1.88 1.86 -86.1 0 0 394.25 200.38
  Q 393.94 201.24 393.39 201.74
  Q 392.74 202.33 393.10 203.12
  Z
  M 395.74 210.65
  L 392.29 203.01
  Q 392.03 202.42 391.38 202.35
  Q 390.34 202.23 389.65 201.38
  Q 389.19 200.80 389.15 200.06
  Q 389.08 198.44 387.43 197.88
  A 0.52 0.52 0.0 0 0 386.73 198.39
  Q 386.84 200.99 386.88 203.79
  C 386.93 207.50 386.26 211.03 386.56 214.75
  Q 386.60 215.26 387.11 215.27
  Q 388.73 215.30 390.12 216.20
  Q 390.62 216.53 391.05 216.11
  L 395.55 211.65
  Q 395.99 211.21 395.74 210.65
  Z
  M 429.01 200.55
  L 423.73 237.48
  A 0.68 0.68 0.0 0 0 424.29 238.24
  Q 426.04 238.52 427.25 239.90
  Q 427.68 240.39 428.23 240.04
  L 441.67 231.62
  Q 442.31 231.22 442.26 230.46
  Q 442.15 228.83 443.39 227.78
  Q 443.98 227.28 443.62 226.59
  L 429.70 200.43
  Q 429.17 199.42 429.01 200.55
  Z
  M 393.41 225.84
  L 405.09 232.86
  Q 406.02 233.43 405.57 232.43
  L 396.72 212.79
  A 0.50 0.49 55.2 0 0 395.92 212.64
  L 391.89 216.65
  A 0.75 0.75 0.0 0 0 391.85 217.67
  Q 394.49 220.75 393.06 224.86
  Q 392.84 225.50 393.41 225.84
  Z
  M 390.09 262.62
  L 413.99 258.66
  A 2.49 2.49 0.0 0 0 415.85 255.18
  L 407.07 235.73
  Q 406.77 235.07 406.16 234.70
  L 392.81 226.62
  Q 392.24 226.27 391.81 226.78
  Q 390.08 228.83 387.45 228.99
  Q 386.81 229.03 386.86 229.67
  L 389.42 262.08
  A 0.59 0.58 83.2 0 0 390.09 262.62
  Z
  M 423.15 251.43
  Q 423.26 252.15 423.77 251.62
  L 442.19 232.61
  Q 442.29 232.51 442.17 232.44
  Q 442.07 232.37 441.93 232.36
  Q 441.72 232.34 441.55 232.46
  Q 435.06 236.63 428.63 240.56
  A 0.77 0.76 70.5 0 0 428.27 241.32
  Q 429.16 247.41 423.23 248.10
  Q 422.66 248.17 422.75 248.74
  L 423.15 251.43
  Z
  M 423.27 254.19
  L 424.58 289.98
  A 0.44 0.44 0.0 0 0 425.34 290.27
  Q 425.72 289.89 425.89 289.36
  Q 434.78 261.84 443.80 234.08
  Q 443.93 233.67 443.62 233.37
  Q 443.35 233.11 442.99 233.14
  Q 442.63 233.17 442.39 233.42
  Q 433.02 243.04 423.90 252.53
  A 2.28 2.25 -24.6 0 0 423.27 254.19
  Z
  M 418.59 246.60
  L 418.95 245.91
  Q 419.23 245.37 418.95 244.82
  Q 418.43 243.84 418.52 242.79
  Q 418.57 242.17 418.04 241.86
  L 408.57 236.17
  Q 407.76 235.69 408.15 236.55
  Q 412.47 245.94 416.43 254.77
  Q 416.57 255.08 416.81 255.33
  Q 417.31 255.84 417.16 255.15
  Q 417.02 254.52 417.43 254.01
  Q 417.85 253.49 417.91 252.83
  L 418.49 246.91
  A 0.87 0.74 67.2 0 1 418.59 246.60
  Z
  M 420.30 247.63
  A 0.71 0.71 0.0 0 1 420.84 248.76
  Q 418.68 251.70 418.79 255.01
  Q 418.84 256.73 420.02 255.48
  L 421.91 253.46
  Q 422.39 252.93 422.44 252.22
  Q 422.56 250.23 421.96 248.25
  Q 421.80 247.75 421.32 247.57
  Q 420.69 247.33 420.19 246.92
  Q 419.71 246.52 419.78 247.14
  Q 419.83 247.60 420.30 247.63
  Z
  M 423.83 287.79
  Q 423.00 266.01 422.57 254.74
  Q 422.54 253.86 421.95 254.51
  L 420.50 256.12
  A 0.90 0.89 52.1 0 0 420.38 257.13
  Q 421.52 259.29 419.17 260.70
  Q 418.54 261.08 418.68 261.79
  Q 421.20 275.59 423.54 287.91
  Q 423.57 288.03 423.69 287.99
  L 423.69 287.99
  Q 423.84 287.95 423.83 287.79
  Z
  M 313.12 350.84
  L 340.95 339.81
  A 0.42 0.42 0.0 0 0 341.14 339.18
  L 315.49 302.58
  A 0.92 0.91 60.0 0 0 314.36 302.27
  Q 313.50 302.68 312.64 302.37
  Q 312.04 302.16 311.89 302.77
  L 300.21 350.18
  A 0.85 0.85 0.0 0 0 301.11 351.23
  Q 303.80 350.98 306.27 351.55
  Q 306.91 351.70 307.21 351.12
  Q 307.38 350.78 307.42 350.42
  A 1.56 1.55 69.6 0 1 307.80 349.58
  Q 309.45 347.71 311.46 349.05
  A 1.87 1.86 -82.2 0 1 312.20 350.03
  L 312.34 350.47
  Q 312.54 351.07 313.12 350.84
  Z
  M 380.18 340.32
  L 388.90 317.33
  Q 389.45 315.88 388.10 316.63
  Q 383.24 319.34 377.36 322.41
  Q 372.85 324.76 368.47 328.43
  Q 363.35 332.73 357.67 337.19
  Q 357.10 337.64 357.80 337.83
  L 376.38 342.84
  Q 377.07 343.02 377.50 342.45
  Q 378.23 341.48 379.36 341.10
  Q 379.95 340.91 380.18 340.32
  Z
  M 367.91 327.55
  Q 360.37 331.48 352.47 335.77
  Q 351.81 336.13 352.53 336.34
  L 355.53 337.18
  Q 356.31 337.40 356.95 336.89
  L 368.15 327.91
  Q 369.89 326.52 367.91 327.55
  Z
  M 355.13 338.37
  A 0.36 0.36 0.0 0 0 354.99 337.74
  L 351.27 336.76
  A 0.36 0.36 0.0 0 0 350.89 336.91
  L 348.46 340.38
  A 0.36 0.36 0.0 0 0 348.48 340.82
  L 349.73 342.28
  A 0.36 0.36 0.0 0 0 350.23 342.33
  L 355.13 338.37
  Z
  M 349.52 337.22
  Q 346.05 338.40 343.26 339.70
  A 0.40 0.39 65.7 0 0 343.07 340.23
  L 343.20 340.50
  A 0.67 0.67 0.0 0 0 343.95 340.88
  L 347.47 340.17
  Q 347.83 340.10 348.04 339.79
  Q 348.91 338.49 349.57 337.28
  A 0.04 0.04 0.0 0 0 349.52 337.22
  Z
  M 374.45 344.33
  Q 375.25 344.62 375.87 344.22
  Q 376.71 343.68 375.75 343.42
  L 356.81 338.25
  A 0.85 0.84 32.3 0 0 356.06 338.41
  L 350.41 343.18
  A 1.08 1.08 0.0 0 0 350.86 345.06
  Q 352.36 345.39 354.26 345.21
  Q 364.58 344.23 372.95 344.07
  Q 373.70 344.05 374.45 344.33
  Z
  M 312.83 352.93
  L 342.49 346.38
  Q 343.33 346.19 342.80 345.52
  C 341.53 343.93 344.31 342.11 341.94 340.54
  Q 341.57 340.29 341.16 340.45
  L 312.25 351.94
  Q 312.05 352.02 312.11 352.23
  L 312.21 352.57
  Q 312.35 353.04 312.83 352.93
  Z
  M 268.55 367.92
  A 0.30 0.29 -63.5 0 1 268.12 368.07
  L 237.83 349.17
  Q 237.47 348.95 237.05 349.01
  Q 236.46 349.10 235.94 349.41
  A 1.57 1.56 -53.8 0 1 234.79 349.59
  C 229.28 348.33 235.01 340.96 237.64 346.19
  Q 237.88 346.68 238.43 346.71
  L 249.34 347.47
  Q 250.06 347.52 249.56 346.99
  L 247.98 345.30
  Q 247.59 344.89 247.09 345.13
  Q 242.77 347.18 240.10 343.25
  Q 239.81 342.81 239.29 342.86
  L 203.25 345.92
  Q 200.83 346.12 203.13 346.89
  Q 234.88 357.54 267.45 368.56
  C 268.40 368.88 269.07 368.64 269.66 367.88
  Q 269.86 367.62 269.55 367.53
  Q 268.93 367.35 268.83 366.69
  Q 259.90 357.69 252.01 349.36
  Q 251.06 348.36 249.68 348.23
  Q 244.22 347.71 239.01 347.53
  Q 236.31 347.43 238.60 348.86
  L 268.64 367.56
  Q 268.67 367.58 268.66 367.62
  L 268.55 367.92
  Z
  M 335.06 363.83
  L 374.00 345.96
  Q 376.86 344.65 373.71 344.72
  C 366.08 344.90 358.28 345.71 350.47 345.86
  A 1.08 1.07 16.0 0 0 349.59 346.34
  Q 348.28 348.35 345.87 348.01
  Q 345.31 347.94 344.97 348.39
  Q 339.50 355.67 334.28 362.31
  Q 333.71 363.04 334.40 363.72
  A 0.60 0.59 -35.2 0 0 335.06 363.83
  Z
  M 342.69 347.74
  Q 343.21 346.94 342.28 347.15
  L 314.13 353.32
  A 0.32 0.32 0.0 0 0 314.02 353.90
  L 327.99 363.56
  A 0.76 0.76 0.0 0 0 328.96 363.47
  Q 330.39 362.03 332.29 362.44
  Q 332.91 362.57 333.26 362.04
  L 342.69 347.74
  Z
  M 344.49 347.56
  L 344.09 347.27
  A 0.16 0.16 0.0 0 0 343.86 347.31
  L 343.75 347.46
  A 6.83 0.28 -54.6 0 0 340.02 353.19
  L 340.24 353.34
  A 6.83 0.28 -54.6 0 0 344.42 347.94
  L 344.53 347.78
  A 0.16 0.16 0.0 0 0 344.49 347.56
  Z
  M 293.79 360.09
  Q 293.02 359.80 292.23 360.27
  Q 289.96 361.62 288.28 362.70
  Q 287.12 363.45 288.41 362.94
  Q 291.21 361.82 293.79 360.09
  Q 294.57 359.88 294.91 360.06
  Q 295.28 360.26 294.90 360.45
  L 278.26 368.71
  Q 274.93 370.36 278.64 370.07
  Q 300.74 368.33 327.26 365.93
  Q 328.00 365.87 327.68 364.63
  A 1.62 1.59 10.4 0 0 327.04 363.72
  L 313.40 354.33
  Q 312.42 353.66 311.25 353.88
  Q 307.05 354.69 303.89 355.96
  Q 301.37 356.97 303.97 357.74
  L 326.72 364.44
  Q 326.86 364.48 326.82 364.61
  L 326.73 364.91
  Q 326.66 365.14 326.44 365.07
  L 302.69 358.09
  Q 302.15 357.93 301.78 358.35
  C 299.55 360.90 294.34 361.04 293.26 357.10
  Q 292.40 353.96 294.28 351.96
  Q 294.85 351.36 294.02 351.30
  L 252.97 348.47
  Q 252.00 348.40 252.68 349.10
  L 269.98 366.95
  Q 270.37 367.36 270.84 367.06
  Q 274.13 364.98 276.53 368.05
  A 0.52 0.51 -33.5 0 0 277.19 368.18
  Q 285.21 363.62 292.92 359.12
  Q 293.62 358.72 293.65 359.52
  Q 293.65 359.53 293.79 360.09
  Z
  M 301.94 352.10
  L 302.95 354.98
  Q 303.03 355.20 303.25 355.12
  Q 305.38 354.43 306.97 353.60
  Q 309.14 352.48 306.71 352.23
  L 302.20 351.77
  Q 301.81 351.73 301.94 352.10
  Z"
/>
<path fill="#ffffff" d="
  M 171.83 202.82
  C 179.15 205.63 180.62 213.62 178.63 220.27
  C 175.72 229.98 165.08 231.90 156.24 231.95
  Q 133.87 232.05 105.99 231.99
  Q 102.50 231.98 102.51 228.48
  L 102.51 226.54
  Q 102.52 223.13 105.93 223.13
  Q 132.18 223.13 157.99 223.09
  C 162.30 223.08 167.40 222.22 168.05 217.65
  C 169.34 208.65 164.35 206.57 156.57 206.56
  Q 129.80 206.49 106.01 206.53
  Q 102.59 206.53 102.62 203.12
  L 102.63 201.04
  Q 102.66 197.58 106.12 197.59
  Q 137.47 197.70 158.26 197.55
  C 162.69 197.52 167.25 196.74 167.99 191.53
  Q 169.33 182.05 160.25 181.56
  Q 152.08 181.12 143.48 181.32
  Q 140.08 181.40 140.06 177.99
  L 140.04 175.80
  Q 140.03 172.45 143.38 172.40
  Q 150.36 172.29 157.96 172.50
  Q 165.52 172.71 171.15 175.46
  C 178.00 178.82 179.46 187.01 178.19 193.80
  C 177.49 197.51 175.09 200.26 171.78 202.05
  Q 170.98 202.49 171.83 202.82
  Z"
/>
<path fill="#ffffff" d="
  M 251.76 202.71
  Q 259.03 205.54 259.50 213.32
  C 260.38 227.87 248.80 231.92 236.80 231.96
  Q 214.44 232.04 189.08 231.99
  Q 185.14 231.99 185.13 228.17
  Q 185.10 200.22 185.15 175.58
  A 3.15 3.14 -0.2 0 1 188.28 172.44
  Q 212.86 172.25 238.00 172.51
  Q 245.90 172.60 251.83 175.74
  C 258.35 179.19 259.60 187.43 258.35 193.97
  C 257.65 197.58 255.02 200.56 251.73 202.15
  A 0.31 0.31 0.0 0 0 251.76 202.71
  Z
  M 196.26 181.87
  L 196.24 196.99
  A 0.63 0.63 0.0 0 0 196.87 197.63
  L 239.72 197.70
  A 8.52 6.52 0.1 0 0 248.25 191.20
  L 248.25 187.86
  A 8.52 6.52 0.1 0 0 239.74 181.32
  L 196.89 181.25
  A 0.63 0.63 0.0 0 0 196.26 181.87
  Z
  M 196.03 206.90
  L 195.97 222.70
  A 0.34 0.34 0.0 0 0 196.31 223.04
  L 239.83 223.19
  A 8.48 6.44 0.2 0 0 248.33 216.78
  L 248.35 213.18
  A 8.48 6.44 0.2 0 0 239.89 206.71
  L 196.37 206.56
  A 0.34 0.34 0.0 0 0 196.03 206.90
  Z"
/>
<path fill="#ffffff" d="
  M 317.83 207.92
  Q 314.54 206.39 310.69 206.33
  Q 298.83 206.15 288.72 206.25
  Q 280.96 206.33 273.60 203.85
  Q 266.46 201.45 264.78 194.51
  C 263.83 190.61 263.96 184.97 265.73 181.32
  C 270.52 171.41 287.59 172.23 296.52 172.39
  Q 300.02 172.46 300.01 175.95
  L 300.00 177.93
  Q 299.99 181.46 296.47 181.33
  Q 287.50 181.00 281.85 181.90
  Q 279.23 182.31 276.97 184.01
  C 274.78 185.66 275.00 189.01 275.25 191.35
  C 275.77 196.36 283.20 197.23 287.09 197.25
  Q 298.39 197.31 307.91 197.28
  Q 315.98 197.25 322.66 199.59
  C 331.05 202.52 332.54 209.10 332.08 217.11
  C 331.32 230.47 317.63 232.01 307.45 232.00
  Q 288.59 231.99 267.64 231.99
  Q 264.34 231.99 264.31 228.69
  L 264.29 226.58
  Q 264.25 223.10 267.74 223.11
  Q 289.54 223.17 309.78 223.08
  C 314.28 223.07 321.10 221.90 321.26 216.19
  C 321.36 212.70 321.63 209.70 317.83 207.92
  Z"
/>
<path fill="#ffffff" d="
  M 180.73 275.13
  C 181.50 278.36 186.30 279.25 189.11 279.26
  Q 205.04 279.34 220.80 279.30
  Q 223.53 279.30 223.47 282.02
  L 223.43 283.49
  Q 223.38 285.96 220.91 285.98
  Q 203.52 286.09 187.13 285.88
  Q 182.32 285.81 177.44 283.32
  Q 172.38 280.74 172.37 273.96
  Q 172.35 259.07 172.40 244.06
  Q 172.40 241.19 175.28 241.15
  L 177.47 241.12
  Q 180.62 241.08 180.62 244.23
  Q 180.63 257.69 180.63 271.36
  Q 180.63 274.71 180.73 275.13
  Z"
/>
<path fill="#ffffff" d="
  M 291.44 251.25
  Q 305.06 251.15 318.25 251.31
  Q 322.75 251.37 327.31 253.58
  Q 332.36 256.04 332.26 262.63
  Q 332.18 267.86 332.35 272.84
  Q 332.48 276.77 331.46 279.25
  C 329.20 284.75 321.41 285.93 316.06 285.98
  Q 307.11 286.05 298.81 285.94
  C 291.28 285.84 282.95 283.86 282.90 274.86
  Q 282.83 260.86 282.90 244.10
  Q 282.91 241.12 285.89 241.12
  L 287.63 241.12
  Q 290.75 241.12 290.75 244.25
  L 290.75 250.57
  Q 290.75 251.25 291.44 251.25
  Z
  M 316.98 257.54
  Q 304.70 257.39 291.29 257.48
  Q 290.73 257.48 290.73 258.04
  Q 290.78 265.99 290.73 275.10
  C 290.71 278.53 295.59 279.56 298.25 279.63
  Q 307.08 279.89 316.73 279.66
  C 319.53 279.60 324.41 278.62 324.44 274.96
  Q 324.50 268.09 324.41 262.02
  C 324.36 258.68 319.59 257.57 316.98 257.54
  Z"
/>
<path fill="#ffffff" d="
  M 269.90 260.46
  C 268.46 256.66 257.85 257.43 254.59 257.46
  Q 252.06 257.49 252.12 254.96
  L 252.16 253.42
  Q 252.21 251.35 254.29 251.26
  C 262.34 250.93 277.93 250.13 277.86 262.30
  Q 277.83 268.18 277.89 274.55
  C 277.99 284.08 269.00 285.94 261.37 285.99
  Q 251.44 286.04 241.77 285.93
  C 236.22 285.87 228.47 284.36 226.77 278.52
  C 225.96 275.75 225.90 271.34 226.83 268.57
  C 229.01 262.07 238.14 261.20 244.26 261.23
  Q 257.16 261.29 269.36 261.24
  Q 270.19 261.24 269.90 260.46
  Z
  M 241.37 279.63
  Q 251.96 279.95 262.80 279.62
  C 265.27 279.55 269.84 278.48 269.96 275.33
  Q 270.09 271.83 270.03 267.85
  Q 270.02 267.26 269.42 267.26
  Q 256.40 267.28 243.73 267.27
  C 241.16 267.27 236.97 267.64 235.06 269.54
  C 233.70 270.89 233.87 273.75 234.10 275.49
  C 234.51 278.58 238.88 279.55 241.37 279.63
  Z"
/>
<path fill="#ef4136" d="
  M 396.51 299.30
  Q 396.76 298.90 397.21 299.38
  L 400.87 301.06
  Q 401.50 301.54 401.73 301.56
  Q 401.98 303.03 403.20 303.55
  Q 403.31 303.68 403.44 304.12
  Q 403.16 305.64 403.82 307.03
  Q 404.11 307.18 403.89 307.79
  Q 403.01 315.50 395.07 316.17
  Q 394.85 316.44 394.29 316.24
  Q 394.30 316.10 394.25 315.97
  Q 394.21 315.84 394.07 315.81
  L 391.06 315.20
  Q 390.30 315.04 390.20 314.59
  Q 389.42 313.19 388.00 312.22
  Q 388.04 312.43 387.79 311.89
  L 386.75 307.66
  Q 386.41 307.87 386.77 307.27
  Q 387.37 304.33 388.96 302.03
  Q 389.25 301.61 389.70 301.41
  Q 390.62 300.99 390.61 300.27
  Q 390.97 300.15 391.23 299.90
  L 396.51 299.30
  Z"
/>
</svg>
